<svg xmlns="http://www.w3.org/2000/svg" xmlns:xlink="http://www.w3.org/1999/xlink" preserveAspectRatio="xMidYMid" width="88.5" height="243.06" viewBox="0 0 88.5 243.06">
  <defs>
    <style>
      .cls-1 {
        fill: #fff;
        fill-rule: evenodd;
      }
    </style>
  </defs>
  <g>
    <path d="M79.866,78.170 L77.940,78.170 L77.940,70.652 L65.131,70.652 L65.131,68.838 L77.940,68.838 L77.940,64.512 L79.866,64.512 L79.866,68.838 L88.500,68.838 L88.500,70.652 L79.866,70.652 L79.866,78.170 ZM84.476,32.220 L74.955,32.220 L74.955,34.732 L72.933,34.732 L72.933,18.014 L86.478,18.014 L86.478,34.732 L84.476,34.732 L84.476,32.220 ZM84.476,19.903 L74.955,19.903 L74.955,30.312 L84.476,30.312 L84.476,19.903 ZM67.323,45.659 L74.105,45.659 C74.495,44.311 74.841,42.989 75.144,41.692 L77.089,41.994 C76.774,43.216 76.422,44.437 76.032,45.659 L86.214,45.659 L86.214,62.736 L75.918,62.736 C74.759,64.903 72.568,66.924 69.344,68.800 C69.281,68.712 69.193,68.599 69.080,68.460 C68.639,67.894 68.286,67.503 68.022,67.289 C70.729,65.853 72.637,64.336 73.746,62.736 L67.323,62.736 L67.323,45.659 ZM84.325,47.453 L77.770,47.453 L77.770,53.329 L84.325,53.329 L84.325,47.453 ZM84.325,60.942 L84.325,55.067 L77.732,55.067 C77.694,57.371 77.373,59.330 76.768,60.942 L84.325,60.942 ZM69.231,60.942 L74.766,60.942 C75.421,59.494 75.779,57.535 75.843,55.067 L69.231,55.067 L69.231,60.942 ZM69.231,53.329 L75.880,53.329 L75.880,47.453 L69.231,47.453 L69.231,53.329 ZM57.575,-0.008 L82.738,-0.008 L82.738,12.951 L57.575,12.951 L57.575,-0.008 ZM59.634,10.967 L80.679,10.967 L80.679,1.956 L59.634,1.956 L59.634,10.967 ZM67.323,34.732 L65.320,34.732 L65.320,32.220 L55.837,32.220 L55.837,34.732 L53.835,34.732 L53.835,18.014 L67.323,18.014 L67.323,34.732 ZM65.320,19.903 L55.837,19.903 L55.837,30.312 L65.320,30.312 L65.320,19.903 ZM54.175,43.354 L56.120,43.354 L56.120,54.651 L60.956,54.651 L60.956,42.410 L62.883,42.410 L62.883,54.651 L65.471,54.651 L65.471,56.389 L56.120,56.389 L56.120,60.753 L56.120,61.848 L63.223,61.848 L63.223,77.698 L61.297,77.698 L61.297,63.586 L56.083,63.586 C56.070,69.266 55.176,74.064 53.400,77.981 C52.808,77.553 52.216,77.175 51.624,76.848 C52.682,74.442 53.362,72.194 53.665,70.104 C54.017,68.026 54.187,64.921 54.175,60.790 L54.175,43.354 ZM61.297,84.516 C60.642,85.687 59.999,86.745 59.370,87.689 L70.459,87.689 L70.459,89.465 L58.123,89.465 C56.649,91.455 55.025,93.224 53.249,94.773 C52.758,94.257 52.241,93.791 51.700,93.376 C54.760,90.870 57.235,87.809 59.124,84.195 L61.297,84.516 ZM56.649,99.515 L56.649,120.768 L54.647,120.768 L54.647,99.515 L56.649,99.515 ZM78.355,89.975 C79.652,91.096 80.893,92.242 82.077,93.413 L80.679,94.641 C79.394,93.294 78.198,92.097 77.089,91.052 L78.355,89.975 ZM85.987,116.309 C86.126,119.042 84.703,120.421 81.718,120.446 C81.163,120.484 80.540,120.509 79.848,120.522 C79.520,120.534 79.155,120.541 78.752,120.541 C78.399,120.541 77.908,120.541 77.278,120.541 C77.203,119.823 77.071,119.124 76.882,118.444 C78.242,118.520 79.690,118.557 81.227,118.557 C83.141,118.620 84.054,117.871 83.966,116.309 L83.966,97.664 L65.131,97.664 L65.131,95.850 L85.987,95.850 L85.987,116.309 ZM77.694,115.157 L62.694,115.157 L62.694,101.499 L77.694,101.499 L77.694,115.157 ZM75.729,103.274 L64.659,103.274 L64.659,107.449 L75.729,107.449 L75.729,103.274 ZM75.729,109.187 L64.659,109.187 L64.659,113.381 L75.729,113.381 L75.729,109.187 ZM56.763,95.151 L58.198,93.961 C59.231,94.881 60.534,96.165 62.109,97.815 L60.560,99.137 C59.099,97.538 57.833,96.209 56.763,95.151 ZM65.755,93.376 L64.244,94.566 C62.997,93.080 61.939,91.871 61.070,90.939 L62.449,89.900 C63.494,90.895 64.596,92.053 65.755,93.376 ZM88.027,89.465 L74.615,89.465 C73.531,91.203 72.329,92.828 71.007,94.339 C70.503,93.911 69.936,93.514 69.306,93.149 C71.636,90.605 73.582,87.652 75.144,84.289 L77.316,84.591 C77.228,84.768 77.096,85.038 76.919,85.404 C76.403,86.436 75.994,87.198 75.691,87.689 L88.027,87.689 L88.027,89.465 ZM72.329,127.104 C72.203,127.293 72.014,127.570 71.762,127.935 C71.598,128.150 71.479,128.313 71.403,128.426 C75.862,134.497 81.560,139.125 88.500,142.311 C88.084,142.828 87.593,143.527 87.026,144.408 C79.822,140.479 74.199,135.693 70.156,130.051 C65.912,135.706 60.239,140.668 53.136,144.937 C52.607,144.106 52.128,143.426 51.700,142.897 C59.521,138.716 65.585,133.338 69.892,126.764 L72.329,127.104 ZM61.769,147.185 C61.794,146.493 61.813,145.756 61.825,144.975 C61.838,144.610 61.844,144.182 61.844,143.690 C61.844,143.300 61.844,142.645 61.844,141.726 L63.998,141.726 C63.998,143.414 63.960,145.258 63.885,147.261 C64.036,154.666 61.485,160.018 56.234,163.318 C55.843,162.890 55.302,162.336 54.609,161.656 C59.508,158.885 61.895,154.062 61.769,147.185 ZM77.940,162.903 L75.767,162.903 L75.767,141.650 L77.940,141.650 L77.940,162.903 Z" class="cls-1"/>
    <path d="M26.364,176.651 L8.732,176.651 C3.708,176.651 0.014,174.336 0.014,169.017 C0.014,163.796 3.708,161.481 8.732,161.481 L26.364,161.481 C31.388,161.481 35.082,163.796 35.082,169.017 C35.082,174.336 31.388,176.651 26.364,176.651 ZM26.512,163.747 L8.584,163.747 C4.841,163.747 2.082,165.224 2.082,169.017 C2.082,172.858 4.841,174.385 8.584,174.385 L26.512,174.385 C30.255,174.385 33.013,172.858 33.013,169.017 C33.013,165.224 30.255,163.747 26.512,163.747 ZM0.309,88.175 L34.786,88.175 L34.786,95.759 C34.786,101.079 31.289,103.394 26.216,103.394 L8.879,103.394 C3.806,103.394 0.309,101.079 0.309,95.759 L0.309,88.175 ZM2.378,95.710 C2.378,99.552 4.988,101.128 8.781,101.128 L26.315,101.128 C30.107,101.128 32.718,99.503 32.718,95.710 L32.718,90.440 L2.378,90.440 L2.378,95.710 ZM0.309,119.683 L34.786,119.683 L34.786,126.825 C34.786,132.144 31.437,134.213 26.413,134.213 L22.670,134.213 C17.203,134.213 14.494,131.701 14.494,126.234 L14.494,121.949 L0.309,121.949 L0.309,119.683 ZM16.563,126.234 C16.563,130.223 18.336,131.947 22.522,131.947 L26.561,131.947 C30.304,131.947 32.718,130.666 32.718,126.825 L32.718,121.949 L16.563,121.949 L16.563,126.234 ZM0.309,142.429 L0.309,140.164 L34.786,140.164 L34.786,147.354 C34.786,152.624 31.880,154.742 27.004,154.742 L24.000,154.742 C19.961,154.742 17.646,153.166 16.858,149.768 C16.070,153.314 13.558,154.742 9.815,154.742 L4.447,154.742 C3.018,154.742 1.442,154.841 0.309,155.580 L0.309,153.215 C1.344,152.624 2.575,152.477 4.447,152.477 L9.864,152.477 C14.445,152.477 15.725,149.965 15.725,146.025 L15.725,142.429 L0.309,142.429 ZM17.794,146.074 C17.794,150.113 18.927,152.477 23.557,152.477 L26.807,152.477 C30.501,152.477 32.718,151.048 32.718,147.305 L32.718,142.429 L17.794,142.429 L17.794,146.074 ZM0.309,66.463 L34.786,66.463 L34.786,69.418 L5.678,79.762 L34.786,79.762 L34.786,81.830 L0.309,81.830 L0.309,79.318 L31.043,68.532 L0.309,68.532 L0.309,66.463 ZM0.309,58.297 L7.944,56.574 L7.944,45.836 L0.309,44.113 L0.309,42.044 L34.836,49.580 L34.836,52.880 L0.309,60.563 L0.309,58.297 ZM9.914,56.229 L32.225,51.156 L9.914,46.181 L9.914,56.229 ZM27.004,35.650 L24.000,35.650 C19.961,35.650 17.646,34.074 16.858,30.676 C16.070,34.222 13.558,35.650 9.815,35.650 L4.447,35.650 C3.018,35.650 1.442,35.749 0.309,36.488 L0.309,34.123 C1.344,33.532 2.575,33.385 4.447,33.385 L9.864,33.385 C14.445,33.385 15.725,30.873 15.725,26.932 L15.725,23.337 L0.309,23.337 L0.309,21.071 L34.786,21.071 L34.786,28.262 C34.786,33.532 31.880,35.650 27.004,35.650 ZM32.718,23.337 L17.794,23.337 L17.794,26.982 C17.794,31.020 18.927,33.385 23.557,33.385 L26.807,33.385 C30.501,33.385 32.718,31.956 32.718,28.213 L32.718,23.337 ZM27.448,14.283 L25.478,14.283 C21.734,14.283 19.419,13.249 18.681,9.752 C17.942,13.495 15.184,14.924 11.293,14.924 L8.288,14.924 C3.314,14.924 0.309,12.658 0.309,7.388 L0.309,0.000 L34.786,0.000 L34.786,7.240 C34.786,12.412 32.225,14.283 27.448,14.283 ZM17.499,2.266 L2.378,2.266 L2.378,7.388 C2.378,11.181 4.496,12.658 8.338,12.658 L11.440,12.658 C15.922,12.658 17.499,10.639 17.499,6.551 L17.499,2.266 ZM32.718,2.266 L19.567,2.266 L19.567,6.107 C19.567,10.146 20.651,12.018 25.034,12.018 L27.251,12.018 C30.846,12.018 32.718,10.885 32.718,7.191 L32.718,2.266 ZM34.786,195.949 L32.718,195.949 L32.718,185.113 L17.991,185.113 L17.991,194.028 L15.922,194.028 L15.922,185.113 L0.309,185.113 L0.309,182.848 L34.786,182.848 L34.786,195.949 ZM34.786,204.117 L0.309,204.117 L0.309,201.851 L34.786,201.851 L34.786,204.117 ZM34.786,212.782 L2.378,212.782 L2.378,223.617 L0.309,223.617 L0.309,210.516 L34.786,210.516 L34.786,212.782 ZM34.786,243.064 L32.718,243.064 L32.718,231.736 L18.828,231.736 L18.828,241.143 L16.760,241.143 L16.760,231.736 L2.378,231.736 L2.378,243.064 L0.309,243.064 L0.309,229.470 L34.786,229.470 L34.786,243.064 Z" class="cls-1"/>
  </g>
</svg>
