<svg xmlns="http://www.w3.org/2000/svg" xmlns:xlink="http://www.w3.org/1999/xlink" preserveAspectRatio="xMidYMid" width="65.625" height="185.63" viewBox="0 0 65.625 185.63">
  <defs>
    <style>
      .cls-1 {
        fill: #fff;
        fill-rule: evenodd;
      }
    </style>
  </defs>
  <g>
    <path d="M54.806,79.697 C54.938,81.265 55.096,82.707 55.279,84.021 C55.564,85.987 55.845,87.551 56.120,88.712 C58.147,86.939 60.108,84.739 62.003,82.111 L63.439,83.043 C61.025,86.201 58.753,88.676 56.624,90.469 C56.980,91.498 57.367,92.415 57.785,93.220 C58.834,95.338 60.001,96.372 61.284,96.322 C62.160,96.372 62.777,95.756 63.133,94.473 C63.480,93.149 63.750,91.783 63.943,90.378 C64.483,90.643 65.008,90.836 65.517,90.958 C65.293,92.619 64.977,94.101 64.570,95.405 C64.060,97.187 62.955,98.064 61.254,98.033 C59.278,98.064 57.587,96.678 56.181,93.877 C55.845,93.194 55.534,92.440 55.249,91.615 C53.313,93.184 50.756,94.773 47.578,96.383 C47.201,95.812 46.834,95.344 46.478,94.977 C49.676,93.429 52.412,91.748 54.683,89.934 C54.204,88.223 53.838,86.323 53.583,84.235 C53.379,82.564 53.237,81.052 53.155,79.697 L44.384,79.697 L44.384,85.641 C46.900,85.172 48.938,84.775 50.497,84.449 C50.497,85.029 50.517,85.564 50.558,86.053 C49.070,86.308 47.013,86.705 44.384,87.245 L44.384,94.350 C44.466,96.561 43.437,97.697 41.298,97.758 C40.687,97.799 39.495,97.819 37.722,97.819 C37.661,97.248 37.549,96.663 37.386,96.062 C37.875,96.113 38.980,96.143 40.702,96.154 C42.097,96.204 42.765,95.593 42.704,94.320 L42.704,87.551 C40.381,87.989 38.242,88.417 36.286,88.834 L35.873,87.153 C37.921,86.817 40.198,86.420 42.704,85.962 L42.704,79.697 L35.843,79.697 L35.843,78.138 L42.704,78.138 L42.704,72.882 C40.493,73.157 38.634,73.366 37.126,73.508 C37.014,72.815 36.856,72.281 36.653,71.904 C40.544,71.588 44.614,71.058 48.862,70.314 L49.396,71.873 C48.418,72.056 46.748,72.306 44.384,72.622 L44.384,78.138 L53.064,78.138 C52.890,75.591 52.804,72.495 52.804,68.848 L54.531,68.848 C54.500,72.179 54.561,75.276 54.714,78.138 L65.639,78.138 L65.639,79.697 L54.806,79.697 ZM65.181,27.880 C64.773,28.308 64.478,28.659 64.295,28.934 C59.955,25.949 57.327,22.135 56.410,17.489 C55.636,22.196 52.997,26.087 48.495,29.163 C48.128,28.725 47.721,28.277 47.272,27.819 C52.132,24.651 54.790,20.591 55.249,15.640 L48.174,15.640 L48.174,14.143 L55.402,14.143 C55.463,13.287 55.493,12.381 55.493,11.423 L55.493,7.878 L49.213,7.878 L49.213,6.380 L57.037,6.380 C58.595,3.987 59.868,1.858 60.857,-0.007 L62.415,0.742 C61.203,2.698 60.001,4.577 58.809,6.380 L64.203,6.380 L64.203,7.878 L57.159,7.878 L57.159,11.347 C57.159,12.325 57.128,13.257 57.067,14.143 L65.227,14.143 L65.227,15.640 L57.220,15.640 C58.452,21.029 61.218,24.982 65.517,27.498 C65.435,27.590 65.324,27.717 65.181,27.880 ZM50.328,0.895 L51.704,0.116 C52.539,1.236 53.614,2.790 54.928,4.776 L53.430,5.632 C52.676,4.348 51.643,2.769 50.328,0.895 ZM36.133,60.504 C38.863,58.803 41.354,56.898 43.605,54.789 L44.980,55.874 C42.495,58.054 39.948,60.051 37.340,61.864 C37.085,61.497 36.683,61.044 36.133,60.504 ZM61.819,76.259 C60.485,74.924 58.834,73.442 56.868,71.812 L58.091,70.712 C59.914,72.230 61.595,73.681 63.133,75.067 L61.819,76.259 ZM56.899,54.789 C59.670,56.664 62.278,58.508 64.723,60.321 L63.546,61.604 C60.531,59.343 57.923,57.453 55.722,55.935 L56.899,54.789 ZM48.418,62.735 C47.777,62.776 46.600,62.796 44.889,62.796 C44.766,62.052 44.619,61.457 44.446,61.008 C45.403,61.090 46.595,61.131 48.021,61.131 C49.600,61.222 50.349,60.463 50.267,58.854 L50.267,52.589 C47.833,52.671 44.914,52.788 41.512,52.940 C40.819,52.981 39.999,53.047 39.052,53.139 C38.950,53.149 38.873,53.154 38.822,53.154 L38.043,51.473 C38.980,51.270 39.999,50.913 41.099,50.404 C44.155,49.029 47.400,47.348 50.833,45.361 C48.052,45.402 44.975,45.519 41.603,45.713 C41.501,45.723 41.359,45.733 41.176,45.743 C40.432,45.794 39.907,45.845 39.602,45.896 L38.914,44.338 C39.810,44.063 40.580,43.726 41.221,43.329 C44.104,41.760 46.997,39.906 49.901,37.767 C45.194,38.052 41.313,38.246 38.257,38.348 C38.175,37.767 38.048,37.237 37.875,36.759 C47.247,36.453 55.636,35.964 63.042,35.292 L63.485,36.820 C59.471,37.156 55.096,37.456 50.359,37.721 L51.643,38.638 C49.045,40.421 45.958,42.275 42.383,44.200 C44.339,44.159 47.746,44.083 52.605,43.971 C52.880,43.961 53.084,43.956 53.216,43.956 C55.610,42.479 57.592,41.175 59.161,40.044 L60.689,41.236 C54.668,45.025 48.505,48.402 42.199,51.367 C48.729,51.255 54.413,51.122 59.252,50.969 C58.916,50.674 58.412,50.226 57.739,49.625 C56.609,48.637 55.789,47.913 55.279,47.455 L56.441,46.462 C58.916,48.530 61.534,50.832 64.295,53.368 L63.072,54.499 C63.031,54.458 62.975,54.402 62.904,54.331 C62.018,53.485 61.290,52.813 60.719,52.314 C58.570,52.365 55.641,52.446 51.933,52.558 L51.933,59.098 C52.045,61.482 50.873,62.694 48.418,62.735 ZM46.356,21.248 C46.620,21.197 47.023,21.121 47.563,21.019 C48.245,20.887 48.765,20.785 49.121,20.713 C49.121,21.080 49.121,21.370 49.121,21.584 C49.131,21.819 49.142,22.038 49.152,22.241 C48.755,22.303 48.174,22.400 47.410,22.532 C46.941,22.613 46.590,22.675 46.356,22.715 L46.356,29.225 L44.766,29.225 L44.766,22.990 C42.484,23.408 39.627,23.953 36.194,24.625 L35.873,22.990 C36.627,22.888 37.381,22.776 38.135,22.654 L38.135,3.462 L36.133,3.462 L36.133,1.995 L48.266,1.995 L48.266,3.462 L46.356,3.462 L46.356,21.248 ZM44.766,3.462 L39.724,3.462 L39.724,8.596 L44.766,8.596 L44.766,3.462 ZM44.766,10.032 L39.724,10.032 L39.724,15.167 L44.766,15.167 L44.766,10.032 ZM44.766,16.618 L39.724,16.618 L39.724,22.394 C39.999,22.343 40.417,22.272 40.977,22.180 C42.576,21.905 43.839,21.686 44.766,21.523 L44.766,16.618 ZM44.262,103.888 C43.498,106.098 42.612,108.329 41.603,110.580 L41.603,132.401 L39.968,132.401 L39.968,113.896 C39.031,115.699 37.895,117.609 36.561,119.626 C36.347,118.913 36.108,118.236 35.843,117.594 C39.001,112.878 41.242,108.130 42.566,103.353 L44.262,103.888 ZM48.449,132.049 L46.799,132.049 L46.799,110.183 L48.449,110.183 L48.449,132.049 ZM48.556,103.414 C49.666,104.667 50.904,106.129 52.269,107.799 L50.833,108.838 C49.763,107.412 48.556,105.920 47.211,104.361 L48.556,103.414 ZM63.974,127.832 C64.086,130.623 62.751,132.008 59.970,131.988 C59.461,131.998 58.855,132.008 58.152,132.019 C57.500,132.019 56.655,132.019 55.615,132.019 C55.514,131.336 55.402,130.740 55.279,130.231 C56.675,130.323 58.070,130.368 59.466,130.368 C60.546,130.378 61.290,130.175 61.697,129.757 C62.125,129.360 62.334,128.642 62.324,127.603 L62.324,107.326 L54.301,107.326 L54.301,105.706 L63.974,105.706 L63.974,127.832 Z" class="cls-1"/>
    <path d="M22.623,121.958 L20.968,121.958 C21.680,120.366 22.037,118.692 22.037,116.934 C22.037,114.082 21.072,111.765 19.144,109.983 C17.215,108.201 14.649,107.310 11.446,107.310 C8.350,107.310 5.909,108.162 4.122,109.866 C2.335,111.570 1.441,113.731 1.441,116.348 C1.441,118.428 1.846,120.298 2.657,121.958 L1.148,121.958 C0.386,120.122 0.006,118.208 0.006,116.216 C0.006,113.111 1.048,110.581 3.133,108.628 C5.218,106.675 7.935,105.699 11.285,105.699 C14.966,105.699 17.918,106.758 20.140,108.877 C22.361,110.996 23.472,113.692 23.472,116.963 C23.472,118.701 23.189,120.366 22.623,121.958 ZM0.401,62.925 L18.741,49.419 C19.112,49.136 19.478,48.892 19.840,48.687 L20.162,48.482 L20.162,48.408 C19.888,48.438 19.556,48.452 19.166,48.452 L0.401,48.452 L0.401,46.885 L23.092,46.885 L23.092,48.086 L4.913,61.504 C4.512,61.797 4.024,62.119 3.448,62.471 L3.448,62.544 C4.190,62.495 4.825,62.471 5.352,62.471 L23.092,62.471 L23.092,64.024 L0.401,64.024 L0.401,62.925 ZM23.092,94.961 L0.401,103.413 L0.401,101.656 L7.462,99.063 L7.462,89.234 L0.401,86.626 L0.401,84.912 L23.092,93.467 L23.092,94.961 ZM21.114,94.112 C20.411,93.936 19.844,93.765 19.415,93.599 L8.897,89.776 L8.897,98.535 L19.385,94.698 C19.698,94.580 20.010,94.487 20.323,94.419 C20.587,94.341 20.850,94.263 21.114,94.185 L21.114,94.112 ZM23.092,67.437 L23.092,82.085 L21.641,82.085 L21.641,75.537 L0.401,75.537 L0.401,73.985 L21.641,73.985 L21.641,67.437 L23.092,67.437 ZM20.330,39.063 C18.236,40.957 15.489,41.905 12.091,41.905 C8.341,41.905 5.389,40.935 3.236,38.997 C1.082,37.058 0.006,34.463 0.006,31.211 C0.006,28.008 1.070,25.454 3.199,23.550 C5.328,21.646 8.096,20.694 11.505,20.694 C15.128,20.694 18.028,21.670 20.206,23.623 C22.383,25.576 23.472,28.247 23.472,31.636 C23.472,34.692 22.425,37.168 20.330,39.063 ZM19.173,24.861 C17.264,23.157 14.766,22.305 11.680,22.305 C8.555,22.305 6.068,23.111 4.217,24.722 C2.366,26.333 1.441,28.487 1.441,31.182 C1.441,33.985 2.357,36.204 4.188,37.840 C6.019,39.475 8.570,40.293 11.842,40.293 C15.045,40.293 17.545,39.495 19.342,37.898 C21.138,36.302 22.037,34.126 22.037,31.372 C22.037,28.736 21.082,26.565 19.173,24.861 ZM22.623,16.958 L20.968,16.958 C21.680,15.366 22.037,13.692 22.037,11.934 C22.037,9.082 21.072,6.765 19.144,4.983 C17.215,3.201 14.649,2.310 11.446,2.310 C8.350,2.310 5.909,3.162 4.122,4.866 C2.335,6.570 1.441,8.731 1.441,11.348 C1.441,13.428 1.846,15.298 2.657,16.958 L1.148,16.958 C0.386,15.122 0.006,13.208 0.006,11.216 C0.006,8.111 1.048,5.581 3.133,3.628 C5.218,1.675 7.935,0.699 11.285,0.699 C14.966,0.699 17.918,1.758 20.140,3.877 C22.361,5.996 23.472,8.692 23.472,11.963 C23.472,13.701 23.189,15.366 22.623,16.958 ZM23.092,124.932 L23.092,139.580 L21.641,139.580 L21.641,133.032 L0.401,133.032 L0.401,131.480 L21.641,131.480 L21.641,124.932 L23.092,124.932 ZM9.117,154.097 L23.092,154.097 L23.092,155.650 L9.337,155.650 C4.073,155.650 1.441,157.793 1.441,162.080 C1.441,166.221 4.000,168.291 9.117,168.291 L23.092,168.291 L23.092,169.844 L9.468,169.844 C3.160,169.844 0.006,167.154 0.006,161.773 C0.006,156.655 3.043,154.097 9.117,154.097 ZM0.372,176.004 C0.616,174.983 0.894,174.204 1.207,173.667 L2.994,173.667 C1.959,175.288 1.441,176.934 1.441,178.604 C1.441,180.381 1.807,181.726 2.540,182.639 C3.272,183.552 4.298,184.009 5.616,184.009 C6.778,184.009 7.706,183.701 8.399,183.086 C9.092,182.471 10.035,181.133 11.226,179.073 C12.564,176.778 13.685,175.325 14.588,174.715 C15.491,174.104 16.534,173.799 17.716,173.799 C19.317,173.799 20.677,174.422 21.795,175.667 C22.913,176.912 23.472,178.569 23.472,180.640 C23.472,181.997 23.243,183.350 22.784,184.698 L21.143,184.698 C21.739,183.369 22.037,181.948 22.037,180.435 C22.037,178.902 21.649,177.683 20.872,176.780 C20.096,175.877 19.102,175.425 17.891,175.425 C16.739,175.425 15.819,175.733 15.130,176.348 C14.442,176.963 13.506,178.296 12.325,180.347 C11.124,182.466 10.057,183.877 9.124,184.580 C8.192,185.283 7.120,185.635 5.909,185.635 C4.171,185.635 2.752,185.029 1.654,183.819 C0.555,182.608 0.006,180.904 0.006,178.706 C0.006,177.925 0.128,177.024 0.372,176.004 Z" class="cls-1"/>
  </g>
</svg>
