<?xml version="1.0" encoding="utf-8"?>
<!DOCTYPE svg PUBLIC "-//W3C//DTD SVG 1.1//EN" "http://www.w3.org/Graphics/SVG/1.1/DTD/svg11.dtd">
<svg version="1.1" id="图形" xmlns="http://www.w3.org/2000/svg" xmlns:xlink="http://www.w3.org/1999/xlink" x="0px" y="0px" width="1779px" height="1024px" viewBox="0 0 1779 1024" enable-background="new 0 0 1779 1024" xml:space="preserve">
  <path fill="#ecf0f1" d="M1066.784563 61.916518c256.860672 16.372941 493.254246 105.400525 711.227699 198.521446-149.408973-99.260723-907.710669-476.860723-912.827392-220.010803 1.023386 31.722496 14.326886 66.514944 40.93399 104.377242 23.53705 36.839014 57.307546 73.678029 91.078042 113.586995 52.190822 60.37504 181.1328 200.568013 225.136845 287.54903 8.186778 16.372941 13.303501 31.722496 15.350272 45.025485 5.116723 77.771264-94.148096 108.470477-241.5104 149.402726l-28.653773-17.396224 55.260877-45.025485c-248.673894-44.002202-398.082867-90.05097-579.215667-153.495962l25.583718-64.468275-91.078042-89.027686c15.350272-3.069952 173.969306-56.281805 337.705267 58.328474l1.023386 1.023283c1.023386 1.023283 2.046669 2.046566 2.046669 2.046566-5.116723 8.18647-15.350272 17.396224-29.677158 28.652544 49.120768-3.069952 78.797926-46.048768 73.681101-90.05097l-21.490332 0c1.023386 15.349555-3.070054 29.67593-7.163494 40.93225-126.895309-94.144205-275.280896-106.423808-401.152819-62.421709l0-110.517069c-62.424269-21.489459-168.852582-89.027686-168.852582-153.495962 4.09344-31.722496 19.44361-42.978816 34.793882-51.165286 139.175526-78.794547 515.768013 28.652544 514.744627 28.652544-135.082086-69.584794-269.140787-124.843315-467.670528-133.029786-263.000781 5.116518-300.864614 180.101939-179.086131 362.250445 117.685146 184.195072 302.911386 347.92407 598.659277 452.301312 85.961318 30.699213 211.833242 64.468275 333.611827 67.538227 174.992691 0 344.868659-52.18857 333.611827-221.034189-8.186778-129.959936-190.342963-308.015206-288.584499-438.998323C1001.29024 95.685683 994.126848 56.8 1066.784563 61.916518L1066.784563 61.916518zM1232.567194 652.364237c7.163494-15.349555 9.210163-32.745779 7.163494-51.165286C1241.777357 621.665024 1239.730586 639.061248 1232.567194 652.364237z" transform="translate(0, 812) scale(1, -1)"/>
</svg>
