<?xml version="1.0" encoding="utf-8"?>
<!DOCTYPE svg PUBLIC "-//W3C//DTD SVG 1.1//EN" "http://www.w3.org/Graphics/SVG/1.1/DTD/svg11.dtd">
<svg version="1.1" id="图形" xmlns="http://www.w3.org/2000/svg" xmlns:xlink="http://www.w3.org/1999/xlink" x="0px" y="0px" width="1024px" height="1024px" viewBox="0 0 1024 1024" enable-background="new 0 0 1024 1024" xml:space="preserve">
  <path fill="#fff" d="M496.496783 328.181994C631.954286 460.398705 764.779668 595.271065 898.526753 729.188987c15.601423-14.064911 29.409566-29.923101 45.010989-43.988012C815.047736 556.328376 685.281055 425.921311 554.806474 295.446729c-4.383457-4.383457-12.196955-10.483469-12.275724-12.275724-0.19232-4.349698 18.965994-21.012971 24.551449-26.597403 124.640543-124.63952 251.938781-251.298398 376.455544-375.432567-14.064911-15.601423-29.923101-29.409566-43.988012-45.010989C769.949794-35.762541 640.443972 95.235804 509.795485 225.884292c-3.602925 3.602925-12.30846 12.276747-12.275724 12.275724-3.09246 0.131964-22.367393-22.36637-25.574426-25.574426C347.130885 87.770118 219.24239-38.626877 95.48979-163.869954c-15.601423 14.064911-29.409566 29.923101-45.010989 43.988012 129.126298 129.508891 258.018334 259.041311 388.731269 389.754246 4.964507 4.964507 12.192863 10.404699 12.275724 12.275724 0.185159 4.183976-18.166026 20.21198-24.551449 26.597403C304.307021 431.372755 186.018142 548.638657 62.754525 671.902274 59.146486 675.511337 50.475732 684.255744 50.478801 684.177998c-0.11355 2.667924 15.230082 16.253059 20.45954 21.482517 9.248735 9.248735 15.158474 14.763604 21.482517 20.45954 2.540052 2.2884 0.868507 2.351824 3.068931 2.045954 4.12362-0.57389 19.244244-18.221267 25.574426-24.551449C246.35435 578.324428 372.968216 450.22213 496.496783 328.181994z" transform="translate(0, 812) scale(1, -1)"/>
</svg>