
<svg xmlns="http://www.w3.org/2000/svg" xmlns:xlink="http://www.w3.org/1999/xlink" preserveAspectRatio="xMidYMid" width="141.375" height="702.719" viewBox="0 0 141.375 702.719">
  <defs>
    <style>
      .cls-1 {
        fill: #fff;
        opacity: 0.06;
        fill-rule: evenodd;
      }
    </style>
  </defs>
  <path d="M122.451,244.896 C109.832,256.308 93.286,262.015 72.814,262.015 C50.224,262.015 32.442,256.176 19.471,244.499 C6.499,232.820 0.013,217.187 0.013,197.597 C0.013,178.301 6.424,162.918 19.250,151.446 C32.074,139.974 48.752,134.238 69.284,134.238 C91.109,134.238 108.582,140.120 121.701,151.887 C134.819,163.652 141.379,179.742 141.379,200.156 C141.379,218.569 135.070,233.482 122.451,244.896 ZM115.480,159.344 C103.978,149.077 88.932,143.945 70.343,143.945 C51.517,143.945 36.531,148.799 25.383,158.505 C14.234,168.212 8.661,181.184 8.661,197.421 C8.661,214.304 14.176,227.673 25.206,237.528 C36.237,247.380 51.605,252.308 71.314,252.308 C90.609,252.308 105.669,247.499 116.495,237.880 C127.318,228.262 132.731,215.158 132.731,198.568 C132.731,182.684 126.980,169.609 115.480,159.344 ZM2.395,100.847 L44.929,85.228 L44.929,26.016 L2.395,10.309 L2.395,-0.016 L139.085,51.519 L139.085,60.520 L2.395,111.436 L2.395,100.847 ZM53.577,82.051 L116.759,58.931 C118.641,58.225 120.523,57.666 122.407,57.254 C123.995,56.783 125.584,56.313 127.172,55.843 L127.172,55.401 C122.936,54.342 119.524,53.312 116.936,52.313 L53.577,29.281 L53.577,82.051 ZM72.990,341.029 L139.085,374.385 L139.085,384.621 L54.371,340.499 L2.395,340.499 L2.395,331.145 L54.106,331.145 L139.085,289.318 L139.085,299.907 L73.167,331.675 C70.930,332.851 67.577,334.292 63.107,335.999 L63.107,336.352 C65.459,337.292 68.755,338.851 72.990,341.029 ZM19.250,425.601 C32.074,414.130 48.752,408.394 69.284,408.394 C91.109,408.394 108.582,414.276 121.701,426.042 C134.819,437.808 141.379,453.897 141.379,474.312 C141.379,492.724 135.070,507.638 122.451,519.051 C109.832,530.464 93.286,536.171 72.814,536.171 C50.224,536.171 32.442,530.331 19.471,518.654 C6.499,506.976 0.013,491.343 0.013,471.753 C0.013,452.456 6.424,437.073 19.250,425.601 ZM25.206,511.683 C36.237,521.536 51.605,526.464 71.314,526.464 C90.609,526.464 105.669,521.655 116.495,512.036 C127.318,502.417 132.731,489.313 132.731,472.723 C132.731,456.839 126.980,443.764 115.480,433.499 C103.978,423.232 88.932,418.101 70.343,418.101 C51.517,418.101 36.531,422.954 25.383,432.661 C14.234,442.367 8.661,455.339 8.661,471.576 C8.661,488.460 14.176,501.829 25.206,511.683 ZM139.085,583.946 L28.957,634.951 C28.368,635.244 27.515,635.597 26.398,636.009 C25.339,636.362 24.250,636.773 23.133,637.245 C21.485,637.891 19.661,638.538 17.662,639.186 L17.662,639.804 L20.662,640.863 C20.956,640.921 23.985,642.010 29.751,644.128 L139.085,694.338 L139.085,702.722 L2.395,702.722 L2.395,693.633 L99.375,693.633 C101.727,693.633 108.434,693.986 119.495,694.692 L119.495,694.338 C114.377,692.338 110.406,690.690 107.582,689.397 L2.395,640.775 L2.395,637.686 L107.052,588.887 C110.406,587.299 114.699,585.799 119.936,584.387 L119.936,583.946 C113.817,584.416 107.728,584.652 101.670,584.652 L2.395,584.652 L2.395,575.210 L139.085,575.210 L139.085,583.946 Z" class="cls-1"/>
</svg>
