<?xml version="1.0" encoding="utf-8"?>
<!DOCTYPE svg PUBLIC "-//W3C//DTD SVG 1.1//EN" "http://www.w3.org/Graphics/SVG/1.1/DTD/svg11.dtd">
<svg version="1.1" id="图形" xmlns="http://www.w3.org/2000/svg" xmlns:xlink="http://www.w3.org/1999/xlink" x="0px" y="0px" width="2145px" height="1024px" viewBox="0 0 2145 1024" enable-background="new 0 0 2145 1024" xml:space="preserve">
  <path fill="#fff" d="M574.692462 346.3049l427.989108 0 0 112.311373L561.741178 458.616273l-0.098544 43.467188L561.642634 696.266948l395.199384 0L956.842018 808.698764 52.303332 808.698764l0-112.325972 395.631884 0 0-194.077644-0.105844-43.573031L7.823327 458.722117l0-112.322322 427.160605 0C394.268687 176.273905 257.062089 32.981281 3.649791-108.0357l55.756034-97.870974c156.203761 86.826706 350.932892 216.180779 445.425985 413.559658 24.433527-51.303289 56.70498-100.447727 96.794286-147.108481 80.616587-93.631742 194.632412-180.86175 348.752142-266.65374l55.756034 97.870974C752.720149 32.884561 615.409532 176.168061 574.692462 346.3049L574.692462 346.3049zM1560.880626 536.26193l113.601574 0 0 90.330506 241.623473 0 0-90.330506 113.601574 0 0 90.330506 109.415264 0L2139.12251 738.903808l-109.415264 0L2029.707247 812l-113.601574 0 0-73.098017L1674.480375 738.901983 1674.480375 812l-113.601574 0 0-73.098017-107.019176 0 0-112.311373 107.019176 0L1560.878801 536.26193 1560.880626 536.26193zM1336.914843 751.917138C1273.424901 812.830327 1173.511869 811.169673 1119.84169 810.242626c-5.538558-0.094895-10.555196-0.202563-15.040789-0.202563l0-112.322322c5.005689 0 10.759584 0.094895 16.916782 0.202563 37.169473 0.616815 106.400536 1.75555 135.945595-26.628876 4.387049-4.228283 17.648565-16.935031 18.170485-52.967594 0.202563-12.281547 0.308407-25.389772 0.414251-39.023567l-176.460102-104.05737 58.163072-96.529676 118.607263 69.997519c0-39.842945-0.098544-81.861165-0.204388-125.113015l-176.565946-104.175988 58.163072-96.518727 117.988623 69.583268c-0.105844-32.220356-0.105844-64.214425-0.105844-95.602629 0-25.709129-15.358321-66.685334-33.517857-89.509303-52.732182-66.064869-142.633838-116.964857-143.46599-117.477652l55.969547-97.76148c4.485593 2.470909 109.840464 62.040975 176.66449 145.551846 34.147446 42.753653 57.951384 108.201708 57.951384 159.092571 0 62.873127 0.202563 128.323007 0.414251 192.533782 0.417901 125.852098 0.724484 244.778717-0.414251 330.251351C1388.913417 674.700332 1371.157183 719.083617 1336.914843 751.917138L1336.914843 751.917138zM1453.850501 461.72772l0.010949-69.689112 0-437.203005c0-91.779473 75.908356-166.835603 168.729844-166.835603l347.907215 0c92.821488 0 168.729844 75.054305 168.729844 166.835603L2139.228354 461.72772 1453.850501 461.72772 1453.850501 461.72772zM1739.643746-99.570009l-117.052451 0c-29.864416 0-55.12827 24.880626-55.12827 54.407436l0 114.685562 172.182547 0L1739.645571-99.570009 1739.643746-99.570009zM1739.643746 181.845312l-172.182547 0 0 167.452417 172.182547 0L1739.643746 181.845312 1739.643746 181.845312zM2025.520936-45.164397c0-29.52681-25.156185-54.407436-55.022426-54.407436l-117.145521 0 0 169.092998 172.167947 0L2025.520936-45.164397 2025.520936-45.164397zM2025.520936 181.845312l-172.167947 0 0 167.452417 172.167947 0L2025.520936 181.845312 2025.520936 181.845312zM2025.520936 181.845312" transform="translate(0, 812) scale(1, -1)"/>
</svg>
