<?xml version="1.0" encoding="utf-8"?>
<!DOCTYPE svg PUBLIC "-//W3C//DTD SVG 1.1//EN" "http://www.w3.org/Graphics/SVG/1.1/DTD/svg11.dtd">
<svg version="1.1" id="图形" xmlns="http://www.w3.org/2000/svg" xmlns:xlink="http://www.w3.org/1999/xlink" x="0px" y="0px" width="1024px" height="1024px" viewBox="0 0 1024 1024" enable-background="new 0 0 1024 1024" xml:space="preserve">
  <path fill="#fff" d="M501.01248 458.51264c25.01632 0 41.73824 16.75008 41.73824 41.70752 0 25.23392-16.6912 41.55648-41.73824 41.55648-25.05472 0-50.19136-16.32256-50.19136-41.55648C450.84928 475.26528 475.99104 458.51264 501.01248 458.51264L501.01248 458.51264zM267.56864 541.7792c-25.01632 0-50.31168-16.32256-50.31168-41.55648 0-24.95744 25.2928-41.70752 50.31168-41.70752 24.92672 0 41.61792 16.75008 41.61792 41.70752C309.1584 525.45408 292.49536 541.7792 267.56864 541.7792L267.56864 541.7792zM999.936 191.5072c0 131.93984-122.3936 244.35712-272.62464 256.05888 0.20992 1.64096 0.30208 3.34592-0.064 5.04576-30.12352 140.44928-181.15072 246.33344-351.33184 246.33344C183.6032 698.94528 27.136 564.85248 27.136 400.0192c0-88.43008 45.14304-168.11008 130.69056-230.94528l-29.824-89.6512c-1.91488-5.8368-0.1792-12.25216 4.4672-16.29696 2.8288-2.432 6.38208-3.70432 9.97376-3.70432 2.30912 0 4.65152 0.54784 6.8096 1.60768l111.96416 56.03328 13.80096-2.79808c34.47552-7.08352 64.23552-13.22496 100.89728-13.22496 10.79296 0 21.73696 0.4864 32.47104 1.3952 4.34688 0.36864 8.0256 2.55744 10.51392 5.71392 40.3712-101.01504 151.63904-173.94432 282.56768-173.94432 33.536 0 67.48928 8.08448 97.95328 15.71584l86.30272-47.1808c2.28352-1.24672 4.80512-1.88672 7.296-1.88672 3.4048 0 6.8096 1.15456 9.54624 3.37664 4.8 3.89376 6.77632 10.30144 4.98432 16.16896l-22.0416 73.29536C959.41376 52.09216 999.936 121.95456 999.936 191.5072L999.936 191.5072zM405.80096 132.74496c-9.87904-0.84992-19.91424-1.27488-29.85728-1.27488-33.55904 0-61.95456 5.80608-94.784 12.5824l-19.09248 3.86048c-3.28448 0.69888-6.75072 0.24576-9.75616-1.30304l-83.87584-41.984 21.7984 65.4848c2.12992 6.41024-0.21248 13.40416-5.71392 17.26464-84.27008 58.73408-126.97856 130.29632-126.97856 212.64384 0 148.04992 142.81472 268.52352 318.3744 268.52352 155.19488 0 292.60288-94.41792 320.96512-220.00128-162.72896-2.12992-294.39488-116.52352-294.39488-257.03424 0-20.4288 3.10272-40.2176 8.3328-59.31008C409.23136 132.59136 407.56224 132.89856 405.80096 132.74496L405.80096 132.74496zM858.81856 11.54176c-5.07392-3.83232-7.232-10.42944-5.40928-16.512l14.37952-47.81312-59.008 32.2816c-2.25024 1.24416-4.77184 1.88416-7.29856 1.88416-1.2416 0-2.49088-0.15616-3.70432-0.4864-31.64928-7.99744-64.38912-16.23552-96.27648-16.23552-148.11136 0-268.58752 101.78304-268.58752 226.87744s120.47616 226.84416 268.58752 226.84416c145.28 0 268.03712-103.87712 268.03712-226.84416C969.53856 129.1584 930.22976 65.23008 858.81856 11.54176L858.81856 11.54176zM609.47968 299.94624c-16.6912 0-33.37984-16.81152-33.37984-33.47456 0-16.77824 16.6912-33.34656 33.37984-33.34656 25.0752 0 41.64608 16.57088 41.64608 33.34656C651.12576 283.16288 634.55488 299.94624 609.47968 299.94624L609.47968 299.94624zM792.84992 299.94624c-16.44288 0-33.13152-16.81152-33.13152-33.47456 0-16.77824 16.6912-33.34656 33.13152-33.34656 24.99072 0 41.86112 16.57088 41.86112 33.34656C834.71104 283.16288 817.87136 299.94624 792.84992 299.94624L792.84992 299.94624zM792.84992 299.94624" transform="translate(0, 812) scale(1, -1)"/>
</svg>
